<svg width="208" height="208" viewBox="0 0 208 208" fill="none" xmlns="http://www.w3.org/2000/svg">
<rect width="208" height="208" fill="#1E1E1E"/>
<rect width="208" height="208" fill="#CC00CC"/>
<path d="M47.625 170.625C35.2917 170.625 26.2083 168.458 20.375 164.125C14.625 159.708 11.75 152.958 11.75 143.875C11.75 141.708 12 139.5 12.5 137.25H32.5C32.3333 138.333 32.2083 139.375 32.125 140.375C32.0417 141.375 32 142.208 32 142.875C32 147.458 33.7083 150.542 37.125 152.125C40.5417 153.625 45.1667 154.375 51 154.375H58.875C65.9583 154.375 70.9583 153.25 73.875 151C76.875 148.667 78.375 144.333 78.375 138V80.625H98.375V138C98.375 145.333 97.25 151.417 95 156.25C92.75 161.083 89 164.708 83.75 167.125C78.5 169.458 71.3333 170.625 62.25 170.625H47.625Z" fill="white"/>
<path d="M64.9223 67.9113L52.0968 47.6354L122.27 64.4087L64.9223 67.9113Z" fill="#D9D9D9"/>
<path d="M49.7243 44.7061L36.8988 24.4302L107.072 41.2035L49.7243 44.7061Z" fill="#D9D9D9"/>
<path d="M130.753 64.0743L117.928 43.7984L188.101 60.5717L130.753 64.0743Z" fill="#D9D9D9"/>
<path d="M104.25 111.35V93.25H148.25V111.35H140.15V99.75H129.25V129H121.25V99.75H112.35V111.35H104.25ZM161.586 129L145.486 93.25H154.186L167.436 122.75H168.086L181.336 93.25H190.036L173.936 129H161.586Z" fill="white"/>
</svg>
